<mxfile host="app.diagrams.net" modified="2021-02-11T23:29:00.946Z" agent="5.0 (Macintosh; Intel Mac OS X 10_14_6) AppleWebKit/537.36 (KHTML, like Gecko) Chrome/88.0.4324.150 Safari/537.36" etag="5rpt61qF5bhv41Jm5joq" version="14.2.9" type="github">
  <diagram id="47Tz1IglF0DNrbYXFpfn" name="Page-1">
    <mxGraphModel dx="1426" dy="682" grid="1" gridSize="10" guides="1" tooltips="1" connect="1" arrows="1" fold="1" page="1" pageScale="1" pageWidth="850" pageHeight="1100" math="0" shadow="0">
      <root>
        <mxCell id="0" />
        <mxCell id="1" parent="0" />
        <mxCell id="Mqgu-dclHp-rflfHcWSP-2" value="" style="aspect=fixed;pointerEvents=1;shadow=0;dashed=0;html=1;strokeColor=none;labelPosition=center;verticalLabelPosition=bottom;verticalAlign=top;align=center;fillColor=#00188D;shape=mxgraph.mscae.enterprise.app_generic" vertex="1" parent="1">
          <mxGeometry x="100" y="160" width="217.95" height="170" as="geometry" />
        </mxCell>
        <mxCell id="Mqgu-dclHp-rflfHcWSP-4" value="" style="aspect=fixed;pointerEvents=1;shadow=0;dashed=0;html=1;strokeColor=#d79b00;labelPosition=center;verticalLabelPosition=bottom;verticalAlign=top;align=center;fillColor=#ffe6cc;shape=mxgraph.mscae.enterprise.app_generic" vertex="1" parent="1">
          <mxGeometry x="440" y="160" width="217.95" height="170" as="geometry" />
        </mxCell>
        <mxCell id="Mqgu-dclHp-rflfHcWSP-5" value="" style="aspect=fixed;pointerEvents=1;shadow=0;dashed=0;html=1;strokeColor=none;labelPosition=center;verticalLabelPosition=bottom;verticalAlign=top;align=center;shape=mxgraph.azure.startup_task;fillColor=#0078D7;" vertex="1" parent="1">
          <mxGeometry x="360" y="430" width="48" height="50" as="geometry" />
        </mxCell>
        <mxCell id="Mqgu-dclHp-rflfHcWSP-6" value="" style="aspect=fixed;pointerEvents=1;shadow=0;dashed=0;html=1;strokeColor=#d79b00;labelPosition=center;verticalLabelPosition=bottom;verticalAlign=top;align=center;fillColor=#ffe6cc;shape=mxgraph.mscae.enterprise.app_generic" vertex="1" parent="1">
          <mxGeometry x="265.03" y="600" width="217.95" height="170" as="geometry" />
        </mxCell>
        <mxCell id="Mqgu-dclHp-rflfHcWSP-7" value="&lt;font style=&quot;font-size: 16px&quot;&gt;Previous DOM&lt;/font&gt;" style="text;html=1;strokeColor=none;fillColor=none;align=left;verticalAlign=middle;whiteSpace=wrap;rounded=0;" vertex="1" parent="1">
          <mxGeometry x="100" y="130" width="120" height="20" as="geometry" />
        </mxCell>
        <mxCell id="Mqgu-dclHp-rflfHcWSP-9" value="&lt;font style=&quot;font-size: 16px&quot;&gt;Next DOM&lt;/font&gt;" style="text;html=1;strokeColor=none;fillColor=none;align=left;verticalAlign=middle;whiteSpace=wrap;rounded=0;" vertex="1" parent="1">
          <mxGeometry x="440" y="130" width="120" height="20" as="geometry" />
        </mxCell>
        <mxCell id="Mqgu-dclHp-rflfHcWSP-10" value="&lt;font style=&quot;font-size: 16px&quot;&gt;Diff (erence)&lt;/font&gt;" style="text;html=1;strokeColor=none;fillColor=none;align=center;verticalAlign=middle;whiteSpace=wrap;rounded=0;" vertex="1" parent="1">
          <mxGeometry x="314" y="490" width="120" height="20" as="geometry" />
        </mxCell>
        <mxCell id="Mqgu-dclHp-rflfHcWSP-11" value="&lt;font style=&quot;font-size: 16px&quot;&gt;DOM&lt;/font&gt;" style="text;html=1;strokeColor=none;fillColor=none;align=left;verticalAlign=middle;whiteSpace=wrap;rounded=0;" vertex="1" parent="1">
          <mxGeometry x="265.03" y="570" width="120" height="20" as="geometry" />
        </mxCell>
        <mxCell id="Mqgu-dclHp-rflfHcWSP-13" value="" style="shape=flexArrow;endArrow=classic;html=1;" edge="1" parent="1">
          <mxGeometry width="50" height="50" relative="1" as="geometry">
            <mxPoint x="209" y="340" as="sourcePoint" />
            <mxPoint x="350" y="440" as="targetPoint" />
          </mxGeometry>
        </mxCell>
        <mxCell id="Mqgu-dclHp-rflfHcWSP-14" value="" style="shape=flexArrow;endArrow=classic;html=1;" edge="1" parent="1">
          <mxGeometry width="50" height="50" relative="1" as="geometry">
            <mxPoint x="558" y="338" as="sourcePoint" />
            <mxPoint x="418" y="440" as="targetPoint" />
          </mxGeometry>
        </mxCell>
        <mxCell id="Mqgu-dclHp-rflfHcWSP-15" value="" style="shape=flexArrow;endArrow=classic;html=1;" edge="1" parent="1">
          <mxGeometry width="50" height="50" relative="1" as="geometry">
            <mxPoint x="380" y="520" as="sourcePoint" />
            <mxPoint x="380" y="560" as="targetPoint" />
          </mxGeometry>
        </mxCell>
      </root>
    </mxGraphModel>
  </diagram>
</mxfile>
